<svg width="257" height="61" viewBox="0 0 257 61" fill="none" xmlns="http://www.w3.org/2000/svg">
<g clip-path="url(#clip0_53_202)" filter="url(#filter0_d_53_202)">
<path d="M25.7156 18.3333C25.9004 18.3333 26.0777 18.4036 26.2084 18.5286C26.3391 18.6536 26.4125 18.8232 26.4125 19C26.4125 19.1768 26.3391 19.3464 26.2084 19.4714C26.0777 19.5964 25.9004 19.6667 25.7156 19.6667C25.2579 19.6667 24.8048 19.5805 24.382 19.4129C23.9592 19.2454 23.575 18.9999 23.2514 18.6904C22.5979 18.0652 22.2307 17.2174 22.2307 16.3333C22.2307 15.4493 22.5979 14.6014 23.2514 13.9763C23.9049 13.3512 24.7913 13 25.7156 13C26.4125 11.4333 28.0156 10.3333 29.8974 10.3333C32.288 10.3333 34.2465 12.1067 34.4277 14.3533L34.7762 14.3333C35.5156 14.3333 36.2247 14.6143 36.7475 15.1144C37.2703 15.6145 37.564 16.2928 37.564 17C37.564 17.7073 37.2703 18.3855 36.7475 18.8856C36.2247 19.3857 35.5156 19.6667 34.7762 19.6667H34.0792C33.8943 19.6667 33.7171 19.5964 33.5864 19.4714C33.4557 19.3464 33.3822 19.1768 33.3822 19C33.3822 18.8232 33.4557 18.6536 33.5864 18.5286C33.7171 18.4036 33.8943 18.3333 34.0792 18.3333H34.7762C35.1459 18.3333 35.5004 18.1929 35.7618 17.9428C36.0232 17.6928 36.1701 17.3536 36.1701 17C36.1701 16.6464 36.0232 16.3073 35.7618 16.0572C35.5004 15.8072 35.1459 15.6667 34.7762 15.6667H33.3822V15C33.3822 14.116 33.0151 13.2681 32.3615 12.643C31.708 12.0179 30.8216 11.6667 29.8974 11.6667C28.155 11.6667 26.7262 12.88 26.4543 14.46C26.2243 14.38 25.9734 14.3333 25.7156 14.3333C25.161 14.3333 24.6292 14.5441 24.2371 14.9191C23.8449 15.2942 23.6247 15.8029 23.6247 16.3333C23.6247 16.8638 23.8449 17.3725 24.2371 17.7476C24.6292 18.1226 25.161 18.3333 25.7156 18.3333ZM28.5034 21C28.8731 21 29.2277 21.1405 29.4891 21.3905C29.7505 21.6406 29.8974 21.9797 29.8974 22.3333C29.8974 22.687 29.7505 23.0261 29.4891 23.2762C29.2277 23.5262 28.8731 23.6667 28.5034 23.6667C28.1337 23.6667 27.7792 23.5262 27.5178 23.2762C27.2564 23.0261 27.1095 22.687 27.1095 22.3333C27.1095 21.9797 27.2564 21.6406 27.5178 21.3905C27.7792 21.1405 28.1337 21 28.5034 21ZM31.6398 19.6667C31.9171 19.6667 32.183 19.772 32.3791 19.9596C32.5751 20.1471 32.6853 20.4015 32.6853 20.6667C32.6853 20.9319 32.5751 21.1862 32.3791 21.3738C32.183 21.5613 31.9171 21.6667 31.6398 21.6667C31.3625 21.6667 31.0966 21.5613 30.9006 21.3738C30.7045 21.1862 30.5943 20.9319 30.5943 20.6667C30.5943 20.4015 30.7045 20.1471 30.9006 19.9596C31.0966 19.772 31.3625 19.6667 31.6398 19.6667ZM28.8519 17C29.1292 17 29.3951 17.1054 29.5912 17.2929C29.7872 17.4804 29.8974 17.7348 29.8974 18C29.8974 18.2652 29.7872 18.5196 29.5912 18.7071C29.3951 18.8947 29.1292 19 28.8519 19C28.5747 19 28.3087 18.8947 28.1127 18.7071C27.9166 18.5196 27.8065 18.2652 27.8065 18C27.8065 17.7348 27.9166 17.4804 28.1127 17.2929C28.3087 17.1054 28.5747 17 28.8519 17Z" fill="white"/>
<path d="M44.6777 14.112V12.528H47.7257V21H45.9497V14.112H44.6777ZM49.3586 16.692C49.3586 19.564 50.4386 21 52.5986 21C53.7426 21 54.5666 20.616 55.0706 19.848C55.5746 19.08 55.8266 18.028 55.8266 16.692C55.8266 15.364 55.5746 14.316 55.0706 13.548C54.5666 12.78 53.7426 12.396 52.5986 12.396C50.4386 12.396 49.3586 13.828 49.3586 16.692ZM54.1586 16.692C54.1586 17.564 54.0506 18.236 53.8346 18.708C53.6266 19.172 53.2146 19.404 52.5986 19.404C51.9746 19.404 51.5546 19.172 51.3386 18.708C51.1306 18.236 51.0266 17.564 51.0266 16.692C51.0266 15.828 51.1306 15.164 51.3386 14.7C51.5546 14.228 51.9746 13.992 52.5986 13.992C53.2146 13.992 53.6266 14.228 53.8346 14.7C54.0506 15.164 54.1586 15.828 54.1586 16.692ZM58.9207 12.396C59.4807 12.396 59.9367 12.568 60.2887 12.912C60.6487 13.248 60.8287 13.716 60.8287 14.316C60.8287 14.916 60.6487 15.388 60.2887 15.732C59.9367 16.068 59.4807 16.236 58.9207 16.236C58.3607 16.236 57.9007 16.068 57.5407 15.732C57.1887 15.388 57.0127 14.916 57.0127 14.316C57.0127 13.716 57.1887 13.248 57.5407 12.912C57.9007 12.568 58.3607 12.396 58.9207 12.396ZM64.3447 12.504L59.6287 21H57.9967L62.7127 12.504H64.3447ZM58.1527 14.316C58.1527 14.588 58.2207 14.808 58.3567 14.976C58.4927 15.136 58.6767 15.216 58.9087 15.216C59.1407 15.216 59.3287 15.136 59.4727 14.976C59.6167 14.808 59.6887 14.588 59.6887 14.316C59.6887 14.044 59.6167 13.828 59.4727 13.668C59.3287 13.5 59.1407 13.416 58.9087 13.416C58.6767 13.416 58.4927 13.5 58.3567 13.668C58.2207 13.828 58.1527 14.044 58.1527 14.316ZM63.4327 17.268C63.9927 17.268 64.4487 17.44 64.8007 17.784C65.1527 18.12 65.3287 18.588 65.3287 19.188C65.3287 19.788 65.1527 20.26 64.8007 20.604C64.4487 20.94 63.9927 21.108 63.4327 21.108C62.8727 21.108 62.4127 20.94 62.0527 20.604C61.7007 20.26 61.5247 19.788 61.5247 19.188C61.5247 18.588 61.7007 18.12 62.0527 17.784C62.4127 17.44 62.8727 17.268 63.4327 17.268ZM62.6647 19.188C62.6647 19.468 62.7327 19.692 62.8687 19.86C63.0047 20.02 63.1887 20.1 63.4207 20.1C63.6527 20.1 63.8407 20.02 63.9847 19.86C64.1287 19.692 64.2007 19.468 64.2007 19.188C64.2007 18.916 64.1287 18.696 63.9847 18.528C63.8407 18.36 63.6527 18.276 63.4207 18.276C63.1887 18.276 63.0047 18.36 62.8687 18.528C62.7327 18.688 62.6647 18.908 62.6647 19.188Z" fill="white"/>
<path d="M101.284 12L100.534 14.2005L99.7838 12C99.7434 11.8808 99.7319 11.7537 99.7504 11.6292C99.7689 11.5047 99.8167 11.3865 99.89 11.2842C99.9634 11.1819 100.06 11.0985 100.172 11.041C100.284 10.9835 100.408 10.9535 100.534 10.9535C100.66 10.9535 100.784 10.9835 100.896 11.041C101.008 11.0985 101.104 11.1819 101.178 11.2842C101.251 11.3865 101.299 11.5047 101.317 11.6292C101.336 11.7537 101.324 11.8808 101.284 12ZM94.5338 17.25L96.7343 18L94.5338 18.75C94.4146 18.7904 94.2875 18.8019 94.163 18.7834C94.0385 18.7649 93.9202 18.7171 93.8179 18.6438C93.7156 18.5704 93.6323 18.4738 93.5748 18.3619C93.5173 18.2499 93.4873 18.1259 93.4873 18C93.4873 17.8742 93.5173 17.7501 93.5748 17.6382C93.6323 17.5262 93.7156 17.4296 93.8179 17.3563C93.9202 17.2829 94.0385 17.2351 94.163 17.2166C94.2875 17.1981 94.4146 17.2096 94.5338 17.25ZM99.7838 24L100.534 21.7995L101.284 24C101.324 24.1192 101.336 24.2463 101.317 24.3708C101.299 24.4953 101.251 24.6136 101.178 24.7159C101.104 24.8182 101.008 24.9015 100.896 24.959C100.784 25.0165 100.66 25.0465 100.534 25.0465C100.408 25.0465 100.284 25.0165 100.172 24.959C100.06 24.9015 99.9634 24.8182 99.89 24.7159C99.8167 24.6136 99.7689 24.4953 99.7504 24.3708C99.7319 24.2463 99.7434 24.1192 99.7838 24ZM106.534 18.7485L104.333 17.9985L106.534 17.2485C106.653 17.2081 106.78 17.1966 106.905 17.2151C107.029 17.2336 107.147 17.2814 107.25 17.3548C107.352 17.4281 107.435 17.5247 107.493 17.6367C107.55 17.7486 107.58 17.8727 107.58 17.9985C107.58 18.1244 107.55 18.2484 107.493 18.3604C107.435 18.4723 107.352 18.5689 107.25 18.6423C107.147 18.7156 107.029 18.7634 106.905 18.7819C106.78 18.8004 106.653 18.7889 106.534 18.7485ZM96.8213 13.227L97.8465 15.3128L95.7608 14.2875C95.6474 14.232 95.549 14.1503 95.4736 14.0491C95.3982 13.948 95.348 13.8302 95.3273 13.7058C95.3065 13.5813 95.3158 13.4537 95.3543 13.3335C95.3928 13.2133 95.4594 13.1041 95.5487 13.0149C95.6379 12.9256 95.7471 12.859 95.8673 12.8205C95.9875 12.782 96.1151 12.7727 96.2396 12.7935C96.364 12.8142 96.4818 12.8644 96.5829 12.9398C96.6841 13.0152 96.7658 13.1137 96.8213 13.227ZM95.7608 21.7118L97.8465 20.6865L96.8213 22.7723C96.7658 22.8856 96.6841 22.9841 96.5829 23.0595C96.4818 23.1349 96.364 23.185 96.2396 23.2058C96.1151 23.2265 95.9875 23.2173 95.8673 23.1788C95.7471 23.1403 95.6379 23.0736 95.5487 22.9844C95.4594 22.8952 95.3928 22.7859 95.3543 22.6658C95.3158 22.5456 95.3065 22.418 95.3273 22.2935C95.348 22.169 95.3982 22.0513 95.4736 21.9501C95.549 21.8489 95.6474 21.7672 95.7608 21.7118ZM104.246 22.7723L103.22 20.6865L105.306 21.7118C105.419 21.7672 105.518 21.8489 105.593 21.9501C105.669 22.0513 105.719 22.169 105.74 22.2935C105.76 22.418 105.751 22.5456 105.713 22.6658C105.674 22.7859 105.607 22.8952 105.518 22.9844C105.429 23.0736 105.32 23.1403 105.2 23.1788C105.079 23.2173 104.952 23.2265 104.827 23.2058C104.703 23.185 104.585 23.1349 104.484 23.0595C104.383 22.9841 104.301 22.8856 104.246 22.7723ZM105.305 14.286L103.219 15.312L104.245 13.2255C104.3 13.1122 104.382 13.0137 104.483 12.9383C104.584 12.8629 104.702 12.8127 104.827 12.792C104.951 12.7712 105.079 12.7805 105.199 12.819C105.319 12.8575 105.428 12.9241 105.517 13.0134C105.607 13.1026 105.673 13.2118 105.712 13.332C105.75 13.4522 105.76 13.5798 105.739 13.7043C105.718 13.8287 105.668 13.9465 105.593 14.0476C105.517 14.1488 105.419 14.2305 105.305 14.286ZM100.534 21.375C98.673 21.375 97.1588 19.8608 97.1588 18C97.1588 16.1393 98.673 14.625 100.534 14.625C102.395 14.625 103.909 16.1393 103.909 18C103.909 19.8608 102.395 21.375 100.534 21.375ZM100.534 16.125C99.4995 16.125 98.6588 16.9658 98.6588 18C98.6588 19.0343 99.4995 19.875 100.534 19.875C101.568 19.875 102.409 19.0343 102.409 18C102.409 16.9658 101.568 16.125 100.534 16.125Z" fill="white"/>
<path d="M116.098 17.692C116.098 20.564 117.178 22 119.338 22C120.482 22 121.306 21.616 121.81 20.848C122.314 20.08 122.566 19.028 122.566 17.692C122.566 16.364 122.314 15.316 121.81 14.548C121.306 13.78 120.482 13.396 119.338 13.396C117.178 13.396 116.098 14.828 116.098 17.692ZM120.898 17.692C120.898 18.564 120.79 19.236 120.574 19.708C120.366 20.172 119.954 20.404 119.338 20.404C118.714 20.404 118.294 20.172 118.078 19.708C117.87 19.236 117.766 18.564 117.766 17.692C117.766 16.828 117.87 16.164 118.078 15.7C118.294 15.228 118.714 14.992 119.338 14.992C119.954 14.992 120.366 15.228 120.574 15.7C120.79 16.164 120.898 16.828 120.898 17.692ZM125.588 20.236V22H123.764V20.236H125.588ZM132.871 14.848H128.851V16.984C129.035 16.768 129.287 16.596 129.607 16.468C129.935 16.332 130.295 16.264 130.687 16.264C131.271 16.264 131.755 16.392 132.139 16.648C132.531 16.896 132.819 17.232 133.003 17.656C133.195 18.072 133.291 18.536 133.291 19.048C133.291 19.952 133.035 20.676 132.523 21.22C132.019 21.764 131.295 22.036 130.351 22.036C129.735 22.036 129.199 21.928 128.743 21.712C128.287 21.488 127.931 21.18 127.675 20.788C127.419 20.388 127.279 19.924 127.255 19.396H128.899C128.963 19.756 129.111 20.044 129.343 20.26C129.575 20.468 129.883 20.572 130.267 20.572C130.731 20.572 131.075 20.432 131.299 20.152C131.531 19.864 131.647 19.484 131.647 19.012C131.647 18.564 131.527 18.216 131.287 17.968C131.047 17.72 130.707 17.596 130.267 17.596C129.947 17.596 129.675 17.668 129.451 17.812C129.227 17.948 129.063 18.132 128.959 18.364H127.315V13.36H132.871V14.848Z" fill="white"/>
<g clip-path="url(#clip1_53_202)">
<path d="M160.867 16.8333C160.712 16.8333 160.564 16.7719 160.455 16.6625C160.345 16.5531 160.284 16.4047 160.284 16.25C160.284 16.0953 160.345 15.9469 160.455 15.8375C160.564 15.7281 160.712 15.6667 160.867 15.6667H165.534C165.843 15.6667 166.14 15.5437 166.359 15.3249C166.577 15.1062 166.7 14.8094 166.7 14.5C166.7 14.1906 166.577 13.8938 166.359 13.675C166.14 13.4562 165.843 13.3333 165.534 13.3333C165.213 13.3333 164.921 13.4617 164.711 13.6775C164.658 13.7341 164.594 13.7793 164.523 13.8102C164.451 13.8411 164.375 13.857 164.297 13.857C164.219 13.857 164.143 13.8411 164.071 13.8102C164 13.7793 163.936 13.7341 163.883 13.6775C163.655 13.45 163.655 13.0767 163.883 12.8492C164.309 12.4292 164.892 12.1667 165.534 12.1667C166.153 12.1667 166.746 12.4125 167.184 12.8501C167.621 13.2877 167.867 13.8812 167.867 14.5C167.867 15.1188 167.621 15.7123 167.184 16.1499C166.746 16.5875 166.153 16.8333 165.534 16.8333H160.867ZM169.617 18C169.772 18 169.92 17.9385 170.03 17.8291C170.139 17.7197 170.2 17.5714 170.2 17.4167C170.2 17.2619 170.139 17.1136 170.03 17.0042C169.92 16.8948 169.772 16.8333 169.617 16.8333C169.454 16.8333 169.308 16.8975 169.203 17.0025C169.149 17.0566 169.085 17.0995 169.014 17.1287C168.944 17.158 168.868 17.1731 168.792 17.1731C168.715 17.1731 168.64 17.158 168.569 17.1287C168.498 17.0995 168.434 17.0566 168.38 17.0025C168.159 16.775 168.159 16.4075 168.38 16.18C168.695 15.865 169.133 15.6667 169.617 15.6667C170.081 15.6667 170.526 15.851 170.854 16.1792C171.183 16.5074 171.367 16.9525 171.367 17.4167C171.367 17.8808 171.183 18.3259 170.854 18.6541C170.526 18.9823 170.081 19.1667 169.617 19.1667H161.45C161.296 19.1667 161.147 19.1052 161.038 18.9958C160.928 18.8864 160.867 18.738 160.867 18.5833C160.867 18.4286 160.928 18.2802 161.038 18.1708C161.147 18.0614 161.296 18 161.45 18H169.617ZM169.034 21.5H160.867C160.712 21.5 160.564 21.4385 160.455 21.3291C160.345 21.2197 160.284 21.0714 160.284 20.9167C160.284 20.7619 160.345 20.6136 160.455 20.5042C160.564 20.3948 160.712 20.3333 160.867 20.3333H169.034C169.498 20.3333 169.943 20.5177 170.271 20.8459C170.599 21.1741 170.784 21.6192 170.784 22.0833C170.784 22.5475 170.599 22.9926 170.271 23.3208C169.943 23.6489 169.498 23.8333 169.034 23.8333C168.55 23.8333 168.112 23.635 167.797 23.32C167.575 23.0925 167.575 22.725 167.797 22.4975C167.851 22.4434 167.915 22.4005 167.986 22.3712C168.056 22.342 168.132 22.3269 168.208 22.3269C168.285 22.3269 168.36 22.342 168.431 22.3712C168.501 22.4005 168.566 22.4434 168.62 22.4975C168.725 22.6025 168.87 22.6667 169.034 22.6667C169.188 22.6667 169.337 22.6052 169.446 22.4958C169.556 22.3864 169.617 22.238 169.617 22.0833C169.617 21.9286 169.556 21.7802 169.446 21.6708C169.337 21.5614 169.188 21.5 169.034 21.5Z" fill="white"/>
<path d="M178.911 15.112V13.528H181.959V22H180.183V15.112H178.911ZM183.472 20.668C186.184 18.788 187.54 17.228 187.54 15.988C187.54 15.612 187.448 15.316 187.264 15.1C187.088 14.884 186.808 14.776 186.424 14.776C185.632 14.776 185.212 15.316 185.164 16.396H183.52C183.568 15.396 183.872 14.64 184.432 14.128C184.992 13.608 185.7 13.348 186.556 13.348C187.428 13.348 188.096 13.576 188.56 14.032C189.032 14.48 189.268 15.08 189.268 15.832C189.268 16.424 189.092 17.02 188.74 17.62C188.396 18.212 187.956 18.76 187.42 19.264C186.884 19.76 186.32 20.188 185.728 20.548H189.436V21.928H183.472V20.668ZM190.593 20.296V18.892L194.649 13.432H196.461V18.832H197.565V20.296H196.461V22H194.757V20.296H190.593ZM194.889 15.412L192.321 18.832H194.889V15.412ZM210.394 15.256C211.202 15.256 211.838 15.508 212.302 16.012C212.774 16.508 213.01 17.216 213.01 18.136V22H211.33V18.328C211.33 17.816 211.198 17.424 210.934 17.152C210.678 16.872 210.322 16.732 209.866 16.732C209.394 16.732 209.018 16.88 208.738 17.176C208.458 17.472 208.318 17.904 208.318 18.472V22H206.638V18.328C206.638 17.816 206.506 17.424 206.242 17.152C205.986 16.872 205.63 16.732 205.174 16.732C204.702 16.732 204.326 16.88 204.046 17.176C203.766 17.472 203.626 17.904 203.626 18.472V22H201.934V15.352H203.626V16.612C203.802 16.18 204.078 15.848 204.454 15.616C204.838 15.376 205.282 15.256 205.786 15.256C206.322 15.256 206.786 15.384 207.178 15.64C207.578 15.896 207.878 16.264 208.078 16.744C208.286 16.288 208.594 15.928 209.002 15.664C209.418 15.392 209.882 15.256 210.394 15.256ZM218.769 15.268C219.329 15.268 219.833 15.404 220.281 15.676C220.729 15.948 221.077 16.344 221.325 16.864C221.581 17.376 221.709 17.98 221.709 18.676C221.709 19.372 221.581 19.98 221.325 20.5C221.077 21.012 220.729 21.404 220.281 21.676C219.833 21.948 219.329 22.084 218.769 22.084C218.209 22.084 217.729 21.952 217.329 21.688C216.937 21.416 216.657 21.056 216.489 20.608V25.168H214.797V15.352H216.489V16.732C216.657 16.284 216.937 15.928 217.329 15.664C217.729 15.4 218.209 15.268 218.769 15.268ZM218.241 16.744C217.729 16.744 217.305 16.92 216.969 17.272C216.641 17.616 216.477 18.084 216.477 18.676C216.477 19.26 216.641 19.728 216.969 20.08C217.305 20.424 217.729 20.596 218.241 20.596C218.769 20.596 219.193 20.428 219.513 20.092C219.833 19.748 219.993 19.276 219.993 18.676C219.993 18.076 219.833 17.604 219.513 17.26C219.193 16.916 218.769 16.744 218.241 16.744ZM227.202 10.636L223.95 24.172H222.318L225.57 10.636H227.202ZM232.06 15.256C232.828 15.256 233.44 15.508 233.896 16.012C234.352 16.516 234.58 17.224 234.58 18.136V22H232.9V18.328C232.9 17.8 232.764 17.392 232.492 17.104C232.22 16.808 231.848 16.66 231.376 16.66C230.896 16.66 230.512 16.816 230.224 17.128C229.936 17.44 229.792 17.888 229.792 18.472V22H228.1V13.12H229.792V16.684C229.968 16.236 230.256 15.888 230.656 15.64C231.064 15.384 231.532 15.256 232.06 15.256Z" fill="white"/>
</g>
</g>
<defs>
<filter id="filter0_d_53_202" x="0.379845" y="0.538461" width="256.308" height="60.3077" filterUnits="userSpaceOnUse" color-interpolation-filters="sRGB">
<feFlood flood-opacity="0" result="BackgroundImageFix"/>
<feColorMatrix in="SourceAlpha" type="matrix" values="0 0 0 0 0 0 0 0 0 0 0 0 0 0 0 0 0 0 127 0" result="hardAlpha"/>
<feOffset dy="12.6923"/>
<feGaussianBlur stdDeviation="10.5769"/>
<feColorMatrix type="matrix" values="0 0 0 0 0.121569 0 0 0 0 0.141176 0 0 0 0 0.294118 0 0 0 0.25 0"/>
<feBlend mode="normal" in2="BackgroundImageFix" result="effect1_dropShadow_53_202"/>
<feBlend mode="normal" in="SourceGraphic" in2="effect1_dropShadow_53_202" result="shape"/>
</filter>
<clipPath id="clip0_53_202">
<rect width="214" height="18" fill="white" transform="translate(21.5337 9)"/>
</clipPath>
<clipPath id="clip1_53_202">
<rect width="77" height="16" fill="white" transform="translate(158.534 10)"/>
</clipPath>
</defs>
</svg>
