<svg width="78" height="16" viewBox="0 0 78 16" fill="none" xmlns="http://www.w3.org/2000/svg">
<g clip-path="url(#clip0_53_211)">
<path d="M2.86702 6.83332C2.71232 6.83332 2.56394 6.77187 2.45455 6.66247C2.34515 6.55307 2.28369 6.4047 2.28369 6.24999C2.28369 6.09528 2.34515 5.94691 2.45455 5.83751C2.56394 5.72812 2.71232 5.66666 2.86702 5.66666H7.53369C7.84311 5.66666 8.13986 5.54374 8.35865 5.32495C8.57744 5.10616 8.70036 4.80941 8.70036 4.49999C8.70036 4.19057 8.57744 3.89382 8.35865 3.67503C8.13986 3.45624 7.84311 3.33332 7.53369 3.33332C7.21286 3.33332 6.92119 3.46166 6.71119 3.67749C6.6581 3.73414 6.59396 3.7793 6.52272 3.81018C6.45148 3.84105 6.37467 3.85698 6.29703 3.85698C6.21938 3.85698 6.14257 3.84105 6.07133 3.81018C6.00009 3.7793 5.93595 3.73414 5.88286 3.67749C5.65536 3.44999 5.65536 3.07666 5.88286 2.84916C6.30869 2.42916 6.89202 2.16666 7.53369 2.16666C8.15253 2.16666 8.74602 2.41249 9.18361 2.85007C9.62119 3.28766 9.86703 3.88115 9.86703 4.49999C9.86703 5.11883 9.62119 5.71232 9.18361 6.14991C8.74602 6.58749 8.15253 6.83332 7.53369 6.83332H2.86702ZM11.617 7.99999C11.7717 7.99999 11.9201 7.93853 12.0295 7.82914C12.1389 7.71974 12.2004 7.57137 12.2004 7.41666C12.2004 7.26195 12.1389 7.11357 12.0295 7.00418C11.9201 6.89478 11.7717 6.83332 11.617 6.83332C11.4537 6.83332 11.3079 6.89749 11.2029 7.00249C11.1489 7.05657 11.0848 7.09947 11.0142 7.12874C10.9437 7.15801 10.868 7.17308 10.7916 7.17308C10.7152 7.17308 10.6396 7.15801 10.569 7.12874C10.4984 7.09947 10.4343 7.05657 10.3804 7.00249C10.1587 6.77499 10.1587 6.40749 10.3804 6.17999C10.6954 5.86499 11.1329 5.66666 11.617 5.66666C12.0812 5.66666 12.5263 5.85103 12.8545 6.17922C13.1827 6.50741 13.367 6.95253 13.367 7.41666C13.367 7.88079 13.1827 8.32591 12.8545 8.65409C12.5263 8.98228 12.0812 9.16666 11.617 9.16666H3.45036C3.29565 9.16666 3.14728 9.1052 3.03788 8.9958C2.92848 8.88641 2.86702 8.73803 2.86702 8.58332C2.86702 8.42861 2.92848 8.28024 3.03788 8.17084C3.14728 8.06145 3.29565 7.99999 3.45036 7.99999H11.617ZM11.0337 11.5H2.86702C2.71232 11.5 2.56394 11.4385 2.45455 11.3291C2.34515 11.2197 2.28369 11.0714 2.28369 10.9167C2.28369 10.7619 2.34515 10.6136 2.45455 10.5042C2.56394 10.3948 2.71232 10.3333 2.86702 10.3333H11.0337C11.4978 10.3333 11.9429 10.5177 12.2711 10.8459C12.5993 11.1741 12.7837 11.6192 12.7837 12.0833C12.7837 12.5475 12.5993 12.9926 12.2711 13.3208C11.9429 13.6489 11.4978 13.8333 11.0337 13.8333C10.5495 13.8333 10.112 13.635 9.79703 13.32C9.57536 13.0925 9.57536 12.725 9.79703 12.4975C9.85099 12.4434 9.91509 12.4005 9.98566 12.3712C10.0562 12.342 10.1319 12.3269 10.2083 12.3269C10.2847 12.3269 10.3603 12.342 10.4309 12.3712C10.5015 12.4005 10.5656 12.4434 10.6195 12.4975C10.7245 12.6025 10.8704 12.6667 11.0337 12.6667C11.1884 12.6667 11.3368 12.6052 11.4462 12.4958C11.5556 12.3864 11.617 12.238 11.617 12.0833C11.617 11.9286 11.5556 11.7802 11.4462 11.6708C11.3368 11.5614 11.1884 11.5 11.0337 11.5Z" fill="white"/>
<path d="M20.9109 5.112V3.528H23.9589V12H22.1829V5.112H20.9109ZM25.4718 10.668C28.1838 8.788 29.5398 7.228 29.5398 5.988C29.5398 5.612 29.4478 5.316 29.2638 5.1C29.0878 4.884 28.8078 4.776 28.4238 4.776C27.6318 4.776 27.2118 5.316 27.1638 6.396H25.5198C25.5678 5.396 25.8718 4.64 26.4318 4.128C26.9918 3.608 27.6998 3.348 28.5558 3.348C29.4278 3.348 30.0958 3.576 30.5598 4.032C31.0318 4.48 31.2678 5.08 31.2678 5.832C31.2678 6.424 31.0918 7.02 30.7398 7.62C30.3958 8.212 29.9558 8.76 29.4198 9.264C28.8838 9.76 28.3198 10.188 27.7278 10.548H31.4358V11.928H25.4718V10.668ZM32.5927 10.296V8.892L36.6487 3.432H38.4607V8.832H39.5647V10.296H38.4607V12H36.7567V10.296H32.5927ZM36.8887 5.412L34.3207 8.832H36.8887V5.412ZM52.3941 5.256C53.2021 5.256 53.8381 5.508 54.3021 6.012C54.7741 6.508 55.0101 7.216 55.0101 8.136V12H53.3301V8.328C53.3301 7.816 53.1981 7.424 52.9341 7.152C52.6781 6.872 52.3221 6.732 51.8661 6.732C51.3941 6.732 51.0181 6.88 50.7381 7.176C50.4581 7.472 50.3181 7.904 50.3181 8.472V12H48.6381V8.328C48.6381 7.816 48.5061 7.424 48.2421 7.152C47.9861 6.872 47.6301 6.732 47.1741 6.732C46.7021 6.732 46.3261 6.88 46.0461 7.176C45.7661 7.472 45.6261 7.904 45.6261 8.472V12H43.9341V5.352H45.6261V6.612C45.8021 6.18 46.0781 5.848 46.4541 5.616C46.8381 5.376 47.2821 5.256 47.7861 5.256C48.3221 5.256 48.7861 5.384 49.1781 5.64C49.5781 5.896 49.8781 6.264 50.0781 6.744C50.2861 6.288 50.5941 5.928 51.0021 5.664C51.4181 5.392 51.8821 5.256 52.3941 5.256ZM60.7686 5.268C61.3286 5.268 61.8326 5.404 62.2806 5.676C62.7286 5.948 63.0766 6.344 63.3246 6.864C63.5806 7.376 63.7086 7.98 63.7086 8.676C63.7086 9.372 63.5806 9.98 63.3246 10.5C63.0766 11.012 62.7286 11.404 62.2806 11.676C61.8326 11.948 61.3286 12.084 60.7686 12.084C60.2086 12.084 59.7286 11.952 59.3286 11.688C58.9366 11.416 58.6566 11.056 58.4886 10.608V15.168H56.7966V5.352H58.4886V6.732C58.6566 6.284 58.9366 5.928 59.3286 5.664C59.7286 5.4 60.2086 5.268 60.7686 5.268ZM60.2406 6.744C59.7286 6.744 59.3046 6.92 58.9686 7.272C58.6406 7.616 58.4766 8.084 58.4766 8.676C58.4766 9.26 58.6406 9.728 58.9686 10.08C59.3046 10.424 59.7286 10.596 60.2406 10.596C60.7686 10.596 61.1926 10.428 61.5126 10.092C61.8326 9.748 61.9926 9.276 61.9926 8.676C61.9926 8.076 61.8326 7.604 61.5126 7.26C61.1926 6.916 60.7686 6.744 60.2406 6.744ZM69.202 0.636L65.95 14.172H64.318L67.57 0.636H69.202ZM74.0597 5.256C74.8277 5.256 75.4397 5.508 75.8957 6.012C76.3517 6.516 76.5797 7.224 76.5797 8.136V12H74.8997V8.328C74.8997 7.8 74.7637 7.392 74.4917 7.104C74.2197 6.808 73.8477 6.66 73.3757 6.66C72.8957 6.66 72.5117 6.816 72.2237 7.128C71.9357 7.44 71.7917 7.888 71.7917 8.472V12H70.0997V3.12H71.7917V6.684C71.9677 6.236 72.2557 5.888 72.6557 5.64C73.0637 5.384 73.5317 5.256 74.0597 5.256Z" fill="white"/>
</g>
<defs>
<clipPath id="clip0_53_211">
<rect width="77" height="16" fill="white" transform="translate(0.533691)"/>
</clipPath>
</defs>
</svg>
