<svg width="24" height="24" viewBox="0 0 24 24" fill="none" xmlns="http://www.w3.org/2000/svg">
<path fill-rule="evenodd" clip-rule="evenodd" d="M3.6001 8.40001C3.6001 8.08175 3.72653 7.77653 3.95157 7.55148C4.17661 7.32644 4.48184 7.20001 4.8001 7.20001H19.2001C19.5184 7.20001 19.8236 7.32644 20.0486 7.55148C20.2737 7.77653 20.4001 8.08175 20.4001 8.40001C20.4001 8.71827 20.2737 9.0235 20.0486 9.24854C19.8236 9.47358 19.5184 9.60001 19.2001 9.60001H4.8001C4.48184 9.60001 4.17661 9.47358 3.95157 9.24854C3.72653 9.0235 3.6001 8.71827 3.6001 8.40001ZM3.6001 15.6C3.6001 15.2818 3.72653 14.9765 3.95157 14.7515C4.17661 14.5264 4.48184 14.4 4.8001 14.4H19.2001C19.5184 14.4 19.8236 14.5264 20.0486 14.7515C20.2737 14.9765 20.4001 15.2818 20.4001 15.6C20.4001 15.9183 20.2737 16.2235 20.0486 16.4485C19.8236 16.6736 19.5184 16.8 19.2001 16.8H4.8001C4.48184 16.8 4.17661 16.6736 3.95157 16.4485C3.72653 16.2235 3.6001 15.9183 3.6001 15.6Z" fill="#363B64"/>
</svg>
