<svg width="24" height="25" viewBox="0 0 24 25" fill="none" xmlns="http://www.w3.org/2000/svg">
<path d="M19 1.5C19.55 1.5 20 1.95 20 2.5V4.5H22C22.55 4.5 23 4.95 23 5.5C23 6.05 22.55 6.5 22 6.5H20V8.5C20 9.05 19.55 9.5 19 9.5C18.45 9.5 18 9.05 18 8.5V6.5H16C15.45 6.5 15 6.05 15 5.5C15 4.95 15.45 4.5 16 4.5H18V2.5C18 1.95 18.45 1.5 19 1.5ZM12 13.5C13.1 13.5 14 12.6 14 11.5C14 10.4 13.1 9.5 12 9.5C10.9 9.5 10 10.4 10 11.5C10 12.6 10.9 13.5 12 13.5ZM14.72 3.97C14.28 4.33 14 4.88 14 5.5C14 6.6 14.9 7.5 16 7.5H17V8.5C17 9.6 17.9 10.5 19 10.5C19.32 10.5 19.62 10.42 19.89 10.29C19.96 10.74 20 11.21 20 11.7C20 14.88 17.55 18.62 12.66 22.93C12.28 23.26 11.71 23.26 11.33 22.93C6.45 18.62 4 14.88 4 11.7C4 6.72 7.8 3.5 12 3.5C12.94 3.5 13.86 3.66 14.72 3.97Z" fill="#FBF99E"/>
</svg>
